# Blender v2.76 (sub 0) OBJ File: ''
# www.blender.org
mtllib spike.mtl
o Plane
v -1.000000 0.000000 1.000000
v 1.000000 0.000000 1.000000
v -1.000000 0.000000 -1.000000
v 1.000000 0.000000 -1.000000
v 0.000000 3.387161 0.000000
v -0.691047 0.461449 -0.691047
v -0.691047 0.461449 0.691047
v 0.691047 0.461449 0.691047
v 0.691047 0.461449 -0.691047
v -0.460487 1.003337 -0.460487
v -0.460487 1.003337 0.460487
v 0.460487 1.003337 0.460487
v 0.460487 1.003337 -0.460487
v -0.255566 1.770157 -0.255566
v -0.255566 1.770157 0.255566
v 0.255566 1.770157 0.255566
v 0.255566 1.770157 -0.255566
vn -0.831000 0.556300 0.000000
vn 0.000000 0.556300 0.831000
vn 0.831000 0.556300 0.000000
vn 0.000000 0.556300 -0.831000
vn -0.920200 0.391500 0.000000
vn 0.000000 0.391500 0.920200
vn 0.920200 0.391500 0.000000
vn 0.000000 0.391500 -0.920200
vn -0.966100 0.258200 0.000000
vn 0.000000 0.258200 0.966100
vn 0.966100 0.258200 0.000000
vn 0.000000 0.258200 -0.966100
vn -0.987700 0.156100 0.000000
vn 0.000000 0.156100 0.987700
vn 0.987700 0.156100 0.000000
vn 0.000000 0.156100 -0.987700
usemtl None
s off
f 7//1 6//1 3//1 1//1
f 8//2 7//2 1//2 2//2
f 9//3 8//3 2//3 4//3
f 6//4 9//4 4//4 3//4
f 11//5 10//5 6//5 7//5
f 12//6 11//6 7//6 8//6
f 13//7 12//7 8//7 9//7
f 10//8 13//8 9//8 6//8
f 15//9 14//9 10//9 11//9
f 16//10 15//10 11//10 12//10
f 17//11 16//11 12//11 13//11
f 14//12 17//12 13//12 10//12
f 5//13 14//13 15//13
f 5//14 15//14 16//14
f 5//15 16//15 17//15
f 5//16 17//16 14//16
