# Blender v2.76 (sub 0) OBJ File: 'building1.blend'
# www.blender.org
mtllib building1.mtl
o Cube
v 1.000000 -1.000000 -1.000000
v 1.000000 -1.000000 1.000000
v -1.000000 -1.000000 1.000000
v -1.000000 -1.000000 -1.000000
v 0.659343 2.370378 -0.659342
v 0.659342 2.370378 0.659343
v -0.659343 2.370378 0.659342
v -0.659342 2.370378 -0.659342
v 1.000000 2.370378 -0.999999
v 0.999999 2.370378 1.000001
v -1.000000 2.370378 -1.000000
v -1.000000 2.370378 1.000000
v 0.659343 3.050009 -0.659342
v 0.659342 3.050009 0.659343
v -0.659342 3.050009 -0.659342
v -0.659343 3.050009 0.659342
vt 0.598835 0.500000
vt 0.898253 0.500000
vt 0.898253 0.796703
vt 0.598835 0.796703
vt 1.000000 0.586886
vt 1.000000 0.782514
vt 0.898253 0.782514
vt 0.898253 0.586886
vt 0.299418 0.500000
vt 0.299418 1.000000
vt 0.000000 1.000000
vt 0.000000 0.500000
vt 0.000000 0.000000
vt 0.299418 0.000000
vt 0.898253 0.000000
vt 0.598836 0.000000
vt 0.547836 0.550537
vt 0.350417 0.550537
vt 0.547836 0.746166
vt 0.350417 0.746166
vt 0.299418 0.796703
vt 0.496836 0.796703
vt 0.496836 0.992331
vt 0.299418 0.992331
vt 1.000000 0.000000
vt 1.000000 0.195629
vt 0.898253 0.195629
vt 1.000000 0.391257
vt 0.898253 0.391257
vn 0.000000 -1.000000 0.000000
vn -1.000000 0.000000 -0.000000
vn 1.000000 0.000000 0.000000
vn -0.000000 -0.000000 1.000000
vn 0.000000 0.000000 -1.000000
vn 0.000000 1.000000 -0.000000
usemtl Material
s off
f 1/1/1 2/2/1 3/3/1 4/4/1
f 8/5/2 7/6/2 16/7/2 15/8/2
f 1/9/3 9/10/3 10/11/3 2/12/3
f 2/12/4 10/13/4 12/14/4 3/9/4
f 3/15/2 12/2/2 11/1/2 4/16/2
f 9/16/5 1/1/5 4/9/5 11/14/5
f 5/17/6 6/18/6 10/9/6 9/1/6
f 8/19/6 5/17/6 9/1/6 11/4/6
f 6/18/6 7/20/6 12/21/6 10/9/6
f 7/20/6 8/19/6 11/4/6 12/21/6
f 13/22/6 15/23/6 16/24/6 14/21/6
f 5/25/5 8/26/5 15/27/5 13/15/5
f 7/28/4 6/5/4 14/8/4 16/29/4
f 6/29/3 5/27/3 13/26/3 14/28/3
