# Alias OBJ Model File
# Exported from SketchUp, (c) 2000-2012 Trimble Navigation Limited
# File units = meters

mtllib building1.mtl

g Mesh1 Model

usemtl FrontColor
v 0.0871489 2.83 1.87997
vt 3.43106 -74.0145
vn 0 1 -0
v 0.22257 2.83 1.77264
vt 8.76261 -69.7889
v 0.0871489 2.83 0.279969
vt 3.43106 -11.0224
f 1/1/1 2/2/1 3/3/1

v 1.68715 2.83 1.87997
vt 66.4232 -74.0145
f 2/2/1 1/1/1 4/4/1

v 0.0871489 0 1.87997
vt 3.43106 0
vn 0 0 1
v 1.68715 0 1.87997
vt 66.4232 0
vt 66.4232 111.417
vt 3.43106 111.417
f 5/5/2 6/6/2 4/7/2 1/8/2 

v 0.0871489 0 0.279969
vt -3.43106 -11.0224
vn 0 -1 -0
v 1.68715 0 0.279969
vt -66.4232 -11.0224
vt -66.4232 -74.0145
vt -3.43106 -74.0145
f 7/9/3 8/10/3 6/11/3 5/12/3 

vt -66.4232 0
vn 0 0 -1
vt -3.43106 0
vt -3.43106 111.417
v 1.68715 2.83 0.279969
vt -66.4232 111.417
f 8/13/4 7/14/4 3/15/4 9/16/4 

vt 11.0224 0
vn -1 0 -0
vt 74.0145 0
vt 74.0145 111.417
vt 11.0224 111.417
f 7/17/5 5/18/5 1/19/5 3/20/5 

v 0.914103 2.83 0.396591
vt 35.9883 -15.6138
vt 66.4232 -11.0224
f 3/3/1 10/21/1 9/22/1

v 0.22257 2.83 1.54264
vt 8.76261 -60.7338
f 10/21/1 3/3/1 11/23/1

f 11/23/1 3/3/1 2/2/1

vt 60.7338 111.417
vt 69.7889 111.417
v 0.22257 3.03 1.77264
vt 69.7889 119.291
v 0.22257 3.03 1.54264
vt 60.7338 119.291
f 11/24/5 2/25/5 12/26/5 13/27/5 

vt 8.76261 111.417
v 0.54257 2.83 1.77264
vt 21.361 111.417
v 0.54257 3.03 1.77264
vt 21.361 119.291
vt 8.76261 119.291
f 2/28/2 14/29/2 15/30/2 12/31/2 

vt 21.361 -69.7889
f 2/2/1 4/4/1 14/32/1

v 0.54257 2.83 1.54264
vt 21.361 -60.7338
f 14/32/1 4/4/1 16/33/1

v 0.914103 2.83 0.826591
vt 35.9883 -32.543
f 16/33/1 4/4/1 17/34/1

v 1.14709 2.83 1.12887
vt 45.161 -44.4436
f 17/34/1 4/4/1 18/35/1

v 1.48688 2.83 1.12887
vt 58.5385 -44.4436
f 18/35/1 4/4/1 19/36/1

v 1.48688 2.83 0.918867
vt 58.5385 -36.1759
f 19/36/1 4/4/1 20/37/1

v 1.5441 2.83 0.826591
vt 60.7915 -32.543
f 20/37/1 4/4/1 21/38/1

v 1.5441 2.83 0.396591
vt 60.7915 -15.6138
f 21/38/1 4/4/1 22/39/1

f 9/22/1 22/39/1 4/4/1

f 9/22/1 10/21/1 22/39/1

vt -60.7915 111.417
vt -35.9883 111.417
v 0.914103 3.09 0.396591
vt -35.9883 121.654
v 1.5441 3.09 0.396591
vt -60.7915 121.654
f 22/40/4 10/41/4 23/42/4 24/43/4 

vt 15.6138 111.417
vt 32.543 111.417
v 0.914103 3.09 0.826591
vt 32.543 121.654
vt 15.6138 121.654
f 10/44/5 17/45/5 25/46/5 23/47/5 

f 10/21/1 16/33/1 17/34/1

f 10/21/1 11/23/1 16/33/1

vt -21.361 111.417
vt -8.76261 111.417
vt -8.76261 119.291
v 0.54257 3.03 1.54264
vt -21.361 119.291
f 16/48/4 11/49/4 13/50/4 26/51/4 

f 13/23/1 12/2/1 15/32/1 26/33/1 

vt -69.7889 111.417
vn 1 0 -0
vt -60.7338 111.417
vt -60.7338 119.291
vt -69.7889 119.291
f 14/52/6 16/53/6 26/54/6 15/55/6 

vt 35.9883 111.417
vt 60.7915 111.417
v 1.5441 3.09 0.826591
vt 60.7915 121.654
vt 35.9883 121.654
f 17/56/2 21/57/2 27/58/2 25/59/2 

v 1.14709 2.83 0.918867
vt 45.161 -36.1759
f 17/34/1 28/60/1 21/38/1

f 28/60/1 17/34/1 18/35/1

vt 36.1759 111.417
vt 44.4436 111.417
v 1.14709 3.07 1.12887
vt 44.4436 120.866
v 1.14709 3.07 0.918867
vt 36.1759 120.866
f 28/61/5 18/62/5 29/63/5 30/64/5 

vt 45.161 111.417
vt 58.5385 111.417
v 1.48688 3.07 1.12887
vt 58.5385 120.866
vt 45.161 120.866
f 18/65/2 19/66/2 31/67/2 29/68/2 

vt -44.4436 111.417
vt -36.1759 111.417
v 1.48688 3.07 0.918867
vt -36.1759 120.866
vt -44.4436 120.866
f 19/69/6 20/70/6 32/71/6 31/72/6 

vt -58.5385 111.417
vt -45.161 111.417
vt -45.161 120.866
vt -58.5385 120.866
f 20/73/4 28/74/4 30/75/4 32/76/4 

f 21/38/1 28/60/1 20/37/1

f 31/36/1 32/37/1 30/60/1 29/35/1 

vt -32.543 111.417
vn 1 0 4.19716e-16
vt -15.6138 111.417
vt -15.6138 121.654
vt -32.543 121.654
f 21/77/7 22/78/7 24/79/7 27/80/7 

f 23/21/1 25/34/1 27/38/1 24/39/1 

vt -74.0145 0
vt -11.0224 0
vt -11.0224 111.417
vt -74.0145 111.417
f 6/81/6 8/82/6 9/83/6 4/84/6 

