# PxlPainter OBJ export file

g Mesh1

vn 0 0.998336 0
v 0.0871489 2.83 1.87997
vt 0.5615814 0.7894737
v 0.22257 2.83 1.77264
vt 0.5427396 0.7657005
v 0.0871489 2.83 0.279969
vt 0.280701756 0.7894737
f 1/1/1 2/2/1 3/3/1

vn 0 0.998955846 0
v 0.22257 2.83 1.77264
vt 0.5427396 0.7657005
v 0.0871489 2.83 1.87997
vt 0.5615814 0.7894737
v 1.68715 2.83 1.87997
vt 0.5615814 0.508594
f 4/4/2 5/5/2 6/6/2

vn 0 0.9992372 0
v 0.22257 2.83 1.77264
vt 0.5427396 0.7657005
v 1.68715 2.83 1.87997
vt 0.5615814 0.508594
v 0.54257 2.83 1.77264
vt 0.5427396 0.709524632
f 7/7/3 8/8/3 9/9/3

vn 0 0.99832 0
v 0.54257 2.83 1.77264
vt 0.5427396 0.709524632
v 1.68715 2.83 1.87997
vt 0.5615814 0.508594
v 0.54257 2.83 1.54264
vt 0.5023632 0.709524632
f 10/10/4 11/11/4 12/12/4

vn 0 0.998319745 0
v 0.54257 2.83 1.54264
vt 0.5023632 0.709524632
v 1.68715 2.83 1.87997
vt 0.5615814 0.508594
v 0.914103 2.83 0.826591
vt 0.376661032 0.6443021
f 13/13/5 14/14/5 15/15/5

vn 0 0.9987807 0
v 0.914103 2.83 0.826591
vt 0.376661032 0.6443021
v 1.68715 2.83 1.87997
vt 0.5615814 0.508594
v 1.14709 2.83 1.12887
vt 0.429726034 0.6034014
f 16/16/6 17/17/6 18/18/6

vn 0 0.9982705 0
v 1.14709 2.83 1.12887
vt 0.429726034 0.6034014
v 1.68715 2.83 1.87997
vt 0.5615814 0.508594
v 1.48687983 2.83 1.12887
vt 0.429726034 0.5437513
f 19/19/7 20/20/7 21/21/7

vn 0 0.9993894 0
v 1.48687983 2.83 1.12887
vt 0.429726034 0.5437513
v 1.68715 2.83 1.87997
vt 0.5615814 0.508594
v 1.48687983 2.83 0.918867
vt 0.392860085 0.5437513
f 22/22/8 23/23/8 24/24/8

vn 0 0.999290347 0
v 1.48687983 2.83 0.918867
vt 0.392860085 0.5437513
v 1.68715 2.83 1.87997
vt 0.5615814 0.508594
v 1.5441 2.83 0.826591
vt 0.376661032 0.5337064
f 25/25/9 26/26/9 27/27/9

vn 0 0.9999898 0
v 1.5441 2.83 0.826591
vt 0.376661032 0.5337064
v 1.68715 2.83 1.87997
vt 0.5615814 0.508594
v 1.5441 2.83 0.396591
vt 0.3011747 0.5337064
f 28/28/10 29/29/10 30/30/10

vn 0 0.9984306 0
v 1.68715 2.83 0.279969
vt 0.280701756 0.508594
v 1.5441 2.83 0.396591
vt 0.3011747 0.5337064
v 1.68715 2.83 1.87997
vt 0.5615814 0.508594
f 31/31/11 32/32/11 33/33/11

vn 0 0.999035835 0
v 1.68715 2.83 0.279969
vt 0.280701756 0.508594
v 0.914103 2.83 0.396591
vt 0.3011747 0.6443021
v 1.5441 2.83 0.396591
vt 0.3011747 0.5337064
f 34/34/12 35/35/12 36/36/12

vn 0 0.999844968 0
v 0.0871489 2.83 0.279969
vt 0.280701756 0.7894737
v 0.914103 2.83 0.396591
vt 0.3011747 0.6443021
v 1.68715 2.83 0.279969
vt 0.280701756 0.508594
f 37/37/13 38/38/13 39/39/13

vn 0 0.9999991 0
v 0.914103 2.83 0.396591
vt 0.3011747 0.6443021
v 0.0871489 2.83 0.279969
vt 0.280701756 0.7894737
v 0.22257 2.83 1.54264
vt 0.5023632 0.7657005
f 40/40/14 41/41/14 42/42/14

vn 0 0.9988382 0
v 0.22257 2.83 1.54264
vt 0.5023632 0.7657005
v 0.0871489 2.83 0.279969
vt 0.280701756 0.7894737
v 0.22257 2.83 1.77264
vt 0.5427396 0.7657005
f 43/43/15 44/44/15 45/45/15

vn 0 0.999960363 0
v 0.914103 2.83 0.396591
vt 0.3011747 0.6443021
v 0.22257 2.83 1.54264
vt 0.5023632 0.7657005
v 0.54257 2.83 1.54264
vt 0.5023632 0.709524632
f 46/46/16 47/47/16 48/48/16

vn 0 0.998542 0
v 0.914103 2.83 0.396591
vt 0.3011747 0.6443021
v 0.54257 2.83 1.54264
vt 0.5023632 0.709524632
v 0.914103 2.83 0.826591
vt 0.376661032 0.6443021
f 49/49/17 50/50/17 51/51/17

vn 0 0.9997259 0
v 1.5441 2.83 0.826591
vt 0.376661032 0.5337064
v 1.14709 2.83 0.918867
vt 0.392860085 0.6034014
v 1.48687983 2.83 0.918867
vt 0.392860085 0.5437513
f 52/52/18 53/53/18 54/54/18

vn 0 0.9991483 0
v 0.914103 2.83 0.826591
vt 0.376661032 0.6443021
v 1.14709 2.83 0.918867
vt 0.392860085 0.6034014
v 1.5441 2.83 0.826591
vt 0.376661032 0.5337064
f 55/55/19 56/56/19 57/57/19

vn 0 0.999926567 0
v 1.14709 2.83 0.918867
vt 0.392860085 0.6034014
v 0.914103 2.83 0.826591
vt 0.376661032 0.6443021
v 1.14709 2.83 1.12887
vt 0.429726034 0.6034014
f 58/58/20 59/59/20 60/60/20

vn 0 0 0.99923104
v 0.0871489 0 1.87997
vt 0 0.5
v 1.68715 0 1.87997
vt 0.280628115 0.5
v 1.68715 2.83 1.87997
vt 0.280628115 0.0036393886
f 61/61/21 62/62/21 63/63/21

vn 0 0 0.998324335
v 0.0871489 0 1.87997
vt 0 0.5
v 1.68715 2.83 1.87997
vt 0.280628115 0.0036393886
v 0.0871489 2.83 1.87997
vt 0 0.0036393886
f 64/64/22 65/65/22 66/66/22

vn 0 -0.9997494 0
v 0.0871489 0 0.279969
vt 0.850658059 0.780701756
v 1.68715 0 0.279969
vt 0.850658059 0.500219166
v 1.68715 0 1.87997
vt 0.5701754 0.500219166
f 67/67/23 68/68/23 69/69/23

vn 0 -0.999749541 0
v 0.0871489 0 0.279969
vt 0.850658059 0.780701756
v 1.68715 0 1.87997
vt 0.5701754 0.500219166
v 0.0871489 0 1.87997
vt 0.5701754 0.780701756
f 70/70/24 71/71/24 72/72/24

vn 0 0 -0.99923104
v 1.68715 0 0.279969
vt 0.280701756 0.5
v 0.0871489 0 0.279969
vt 0.561329842 0.5
v 0.0871489 2.83 0.279969
vt 0.561329842 0.0036393886
f 73/73/25 74/74/25 75/75/25

vn 0 0 -0.998324335
v 1.68715 0 0.279969
vt 0.280701756 0.5
v 0.0871489 2.83 0.279969
vt 0.561329842 0.0036393886
v 1.68715 2.83 0.279969
vt 0.280701756 0.0036393886
f 76/76/26 77/77/26 78/78/26

vn -0.999231 0 0
v 0.0871489 0 0.279969
vt 0.5614035 0.5
v 0.0871489 0 1.87997
vt 0.8420316 0.5
v 0.0871489 2.83 1.87997
vt 0.8420316 0.0036393886
f 79/79/27 80/80/27 81/81/27

vn -0.998324335 0 0
v 0.0871489 0 0.279969
vt 0.5614035 0.5
v 0.0871489 2.83 1.87997
vt 0.8420316 0.0036393886
v 0.0871489 2.83 0.279969
vt 0.5614035 0.0036393886
f 82/82/28 83/83/28 84/84/28

vn -0.998537958 0 0
v 0.22257 2.83 1.54264
vt 0.9649123 0.280701756
v 0.22257 2.83 1.77264
vt 0.9649123 0.321069956
v 0.22257 3.03 1.77264
vt 1.00001514 0.321069956
f 85/85/29 86/86/29 87/87/29

vn -0.9987663 0 0
v 0.22257 2.83 1.54264
vt 0.9649123 0.280701756
v 0.22257 3.03 1.77264
vt 1.00001514 0.321069956
v 0.22257 3.03 1.54264
vt 1.00001514 0.280701756
f 88/88/30 89/89/30 90/90/30

vn 0 0 0.999890566
v 0.22257 2.83 1.77264
vt 0.842105269 0.359649122
v 0.54257 2.83 1.77264
vt 0.898193836 0.359649122
v 0.54257 3.03 1.77264
vt 0.898193836 0.324593782
f 91/91/31 92/92/31 93/93/31

vn 0 0 0.9987336
v 0.22257 2.83 1.77264
vt 0.842105269 0.359649122
v 0.54257 3.03 1.77264
vt 0.898193836 0.324593782
v 0.22257 3.03 1.77264
vt 0.842105269 0.324593782
f 94/94/32 95/95/32 96/96/32

vn 0 0 -0.9986126
v 1.5441 2.83 0.396591
vt 0.921052635 3.22264831E-18
v 0.914103 2.83 0.396591
vt 0.921052635 0.110565186
v 0.914103 3.09 0.396591
vt 0.9666829 0.110565186
f 97/97/33 98/98/33 99/99/33

vn 0 0 -0.9999813
v 1.5441 2.83 0.396591
vt 0.921052635 3.22264831E-18
v 0.914103 3.09 0.396591
vt 0.9666829 0.110565186
v 1.5441 3.09 0.396591
vt 0.9666829 4.28692324E-19
f 100/100/34 101/101/34 102/102/34

vn -0.999492347 0 0
v 0.914103 2.83 0.396591
vt 0.842105269 0.219298244
v 0.914103 2.83 0.826591
vt 0.9175043 0.219298244
v 0.914103 3.09 0.826591
vt 0.9175043 0.173708156
f 103/103/35 104/104/35 105/105/35

vn -0.9988945 0 0
v 0.914103 2.83 0.396591
vt 0.842105269 0.219298244
v 0.914103 3.09 0.826591
vt 0.9175043 0.173708156
v 0.914103 3.09 0.396591
vt 0.842105269 0.173708156
f 106/106/36 107/107/36 108/108/36

vn 0 0 -0.999890566
v 0.54257 2.83 1.54264
vt 0.9035088 0.359649122
v 0.22257 2.83 1.54264
vt 0.959597349 0.359649122
v 0.22257 3.03 1.54264
vt 0.959597349 0.324593782
f 109/109/37 110/110/37 111/111/37

vn 0 0 -0.9987336
v 0.54257 2.83 1.54264
vt 0.9035088 0.359649122
v 0.22257 3.03 1.54264
vt 0.959597349 0.324593782
v 0.54257 3.03 1.54264
vt 0.9035088 0.324593782
f 112/112/38 113/113/38 114/114/38

vn 0 0.998271 0
v 0.22257 3.03 1.54264
vt 0.842105269 0.280701756
v 0.22257 3.03 1.77264
vt 0.8824844 0.280701756
v 0.54257 3.03 1.77264
vt 0.8824844 0.2245222
f 115/115/39 116/116/39 117/117/39

vn 0 0.999264956 0
v 0.22257 3.03 1.54264
vt 0.842105269 0.280701756
v 0.54257 3.03 1.77264
vt 0.8824844 0.2245222
v 0.54257 3.03 1.54264
vt 0.842105269 0.2245222
f 118/118/40 119/119/40 120/120/40

vn 0.998537958 0 0
v 0.54257 2.83 1.77264
vt 0.842105269 0.394736856
v 0.54257 2.83 1.54264
vt 0.882473469 0.394736856
v 0.54257 3.03 1.54264
vt 0.882473469 0.359634
f 121/121/41 122/122/41 123/123/41

vn 0.9987663 0 0
v 0.54257 2.83 1.77264
vt 0.842105269 0.394736856
v 0.54257 3.03 1.54264
vt 0.882473469 0.359634
v 0.54257 3.03 1.77264
vt 0.842105269 0.359634
f 124/124/42 125/125/42 126/126/42

vn 0 0 0.9986126
v 0.914103 2.83 0.826591
vt 0.842105269 0.166666672
v 1.5441 2.83 0.826591
vt 0.952670336 0.166666672
v 1.5441 3.09 0.826591
vt 0.952670336 0.121036388
f 127/127/43 128/128/43 129/129/43

vn 0 0 0.9999813
v 0.914103 2.83 0.826591
vt 0.842105269 0.166666672
v 1.5441 3.09 0.826591
vt 0.952670336 0.121036388
v 0.914103 3.09 0.826591
vt 0.842105269 0.121036388
f 130/130/44 131/131/44 132/132/44

vn -0.9988064 0 0
v 1.14709 2.83 0.918867
vt 0.956140339 0.157894731
v 1.14709 2.83 1.12887
vt 0.992988944 0.157894731
v 1.14709 3.07 1.12887
vt 0.992988944 0.115782641
f 133/133/45 134/134/45 135/135/45

vn -0.998573065 0 0
v 1.14709 2.83 0.918867
vt 0.956140339 0.157894731
v 1.14709 3.07 1.12887
vt 0.992988944 0.115782641
v 1.14709 3.07 0.918867
vt 0.956140339 0.115782641
f 136/136/46 137/137/46 138/138/46

vn 0 0 0.9994382
v 1.14709 2.83 1.12887
vt 0.88596493 0.2631579
v 1.48687983 2.83 1.12887
vt 0.9455492 0.2631579
v 1.48687983 3.07 1.12887
vt 0.9455492 0.22107248
f 139/139/47 140/140/47 141/141/47

vn 0 0 0.9982991
v 1.14709 2.83 1.12887
vt 0.88596493 0.2631579
v 1.48687983 3.07 1.12887
vt 0.9455492 0.22107248
v 1.14709 3.07 1.12887
vt 0.88596493 0.22107248
f 142/142/48 143/143/48 144/144/48

vn 0.9988064 0 0
v 1.48687983 2.83 1.12887
vt 0.947368443 0.2631579
v 1.48687983 2.83 0.918867
vt 0.984217 0.2631579
v 1.48687983 3.07 0.918867
vt 0.984217 0.221045792
f 145/145/49 146/146/49 147/147/49

vn 0.998573065 0 0
v 1.48687983 2.83 1.12887
vt 0.947368443 0.2631579
v 1.48687983 3.07 0.918867
vt 0.984217 0.221045792
v 1.48687983 3.07 1.12887
vt 0.947368443 0.221045792
f 148/148/50 149/149/50 150/150/50

vn 0 0 -0.9994382
v 1.48687983 2.83 0.918867
vt 0.842105269 0.324561417
v 1.14709 2.83 0.918867
vt 0.90168947 0.324561417
v 1.14709 3.07 0.918867
vt 0.90168947 0.282475978
f 151/151/51 152/152/51 153/153/51

vn 0 0 -0.9982991
v 1.48687983 2.83 0.918867
vt 0.842105269 0.324561417
v 1.14709 3.07 0.918867
vt 0.90168947 0.282475978
v 1.48687983 3.07 0.918867
vt 0.842105269 0.282475978
f 154/154/52 155/155/52 156/156/52

vn 0 0.998787 0
v 1.48687983 3.07 1.12887
vt 0.963131845 0.317551047
v 1.48687983 3.07 0.918867
vt 0.963131845 0.280701756
v 1.14709 3.07 0.918867
vt 0.9035088 0.280701756
f 157/157/53 158/158/53 159/159/53

vn 0 0.9997919 0
v 1.48687983 3.07 1.12887
vt 0.963131845 0.317551047
v 1.14709 3.07 0.918867
vt 0.9035088 0.280701756
v 1.14709 3.07 1.12887
vt 0.9035088 0.317551047
f 160/160/54 161/161/54 162/162/54

vn 0.999492347 0 0
v 1.5441 2.83 0.826591
vt 0.921052635 0.219298244
v 1.5441 2.83 0.396591
vt 0.9964517 0.219298244
v 1.5441 3.09 0.396591
vt 0.9964517 0.173708156
f 163/163/55 164/164/55 165/165/55

vn 0.9988945 0 0
v 1.5441 2.83 0.826591
vt 0.921052635 0.219298244
v 1.5441 3.09 0.396591
vt 0.9964517 0.173708156
v 1.5441 3.09 0.826591
vt 0.921052635 0.173708156
f 166/166/56 167/167/56 168/168/56

vn 0 0.998383641 0
v 0.914103 3.09 0.396591
vt 0.842105269 0.114035085
v 0.914103 3.09 0.826591
vt 0.917588 0.114035085
v 1.5441 3.09 0.826591
vt 0.917588 0.00344452937
f 169/169/57 170/170/57 171/171/57

vn 0 0.9997472 0
v 0.914103 3.09 0.396591
vt 0.842105269 0.114035085
v 1.5441 3.09 0.826591
vt 0.917588 0.00344452937
v 1.5441 3.09 0.396591
vt 0.842105269 0.00344452937
f 172/172/58 173/173/58 174/174/58

vn 0.999231 0 0
v 1.68715 0 1.87997
vt 0 1
v 1.68715 0 0.279969
vt 0.280628115 1
v 1.68715 2.83 0.279969
vt 0.280628115 0.5036394
f 175/175/59 176/176/59 177/177/59

vn 0.998324335 0 0
v 1.68715 0 1.87997
vt 0 1
v 1.68715 2.83 0.279969
vt 0.280628115 0.5036394
v 1.68715 2.83 1.87997
vt 0 0.5036394
f 178/178/60 179/179/60 180/180/60

