# Blender v2.76 (sub 0) OBJ File: ''
# www.blender.org
mtllib phonetower.mtl
o Cube
v 0.796276 -0.835974 -0.966864
v -0.796275 -0.835974 -0.966864
v 0.008360 3.597447 -0.071237
v 0.059024 3.657906 0.059024
v -0.059024 3.657906 0.059024
v -0.008360 3.597447 -0.071237
v 0.581559 0.311975 -0.734959
v 0.405282 1.428974 -0.509306
v 0.210450 2.393408 -0.314474
v -0.581559 0.311975 -0.734959
v -0.405282 1.428974 -0.509306
v -0.210450 2.393408 -0.314474
v 0.405909 1.181454 -0.559309
v 0.219177 2.553887 -0.282054
v -0.405909 1.181454 -0.559309
v -0.219177 2.553887 -0.282054
v 0.627303 0.000451 -0.797892
v 0.529512 1.328953 -0.529512
v -0.627303 0.000451 -0.797892
v -0.529512 1.328953 -0.529512
v 1.000000 -1.000000 -1.000000
v -1.000000 -1.000000 -1.000000
v 0.764756 0.164476 -0.764756
v -0.764756 0.164476 -0.764756
v 0.294268 2.493429 -0.294268
v 0.059024 3.657906 -0.059023
v -0.294268 2.493429 -0.294268
v -0.059024 3.657906 -0.059024
v 1.000000 -1.035657 -0.865839
v -1.000000 -1.035657 -0.865840
v 0.294268 2.457772 -0.160107
v 0.059024 3.622248 0.075137
v -0.294268 2.457772 -0.160107
v -0.059024 3.622248 0.075137
v 0.764756 0.128819 -0.630595
v 0.529512 1.293296 -0.395351
v -0.764756 0.128819 -0.630595
v -0.529512 1.293296 -0.395351
v 0.405282 1.393317 -0.375145
v 0.210450 2.357751 -0.180313
v -0.405282 1.393317 -0.375145
v -0.210451 2.357751 -0.180313
v 0.581559 0.276318 -0.600798
v 0.405909 1.145797 -0.425148
v -0.581559 0.276318 -0.600798
v -0.405909 1.145797 -0.425148
v 0.796276 -0.871632 -0.832703
v -0.796275 -0.871632 -0.832704
v 0.627303 -0.035206 -0.663731
v -0.627303 -0.035206 -0.663731
v 0.219177 2.518230 -0.147893
v 0.008360 3.561790 0.062924
v -0.219177 2.518230 -0.147893
v -0.008360 3.561790 0.062924
v 0.796276 -0.835974 0.966864
v -0.796275 -0.835974 0.966864
v 0.008360 3.597447 0.071237
v 0.059024 3.657906 -0.059024
v -0.059024 3.657906 -0.059024
v -0.008360 3.597447 0.071237
v 0.581559 0.311975 0.734959
v 0.405282 1.428974 0.509306
v 0.210450 2.393408 0.314474
v -0.581559 0.311975 0.734959
v -0.405282 1.428974 0.509306
v -0.210450 2.393408 0.314474
v 0.405909 1.181454 0.559309
v 0.219177 2.553887 0.282054
v -0.405909 1.181454 0.559309
v -0.219177 2.553887 0.282054
v 0.627303 0.000451 0.797892
v 0.529512 1.328953 0.529512
v -0.627303 0.000451 0.797892
v -0.529512 1.328953 0.529512
v 1.000000 -1.000000 1.000000
v -1.000000 -1.000000 1.000000
v 0.764756 0.164476 0.764756
v -0.764756 0.164476 0.764756
v 0.294268 2.493429 0.294268
v 0.059024 3.657906 0.059023
v -0.294268 2.493429 0.294268
v -0.059024 3.657906 0.059024
v 1.000000 -1.035657 0.865839
v -1.000000 -1.035657 0.865840
v 0.294268 2.457772 0.160107
v 0.059024 3.622248 -0.075137
v -0.294268 2.457772 0.160107
v -0.059024 3.622248 -0.075137
v 0.764756 0.128819 0.630595
v 0.529512 1.293296 0.395351
v -0.764756 0.128819 0.630595
v -0.529512 1.293296 0.395351
v 0.405282 1.393317 0.375145
v 0.210450 2.357751 0.180313
v -0.405282 1.393317 0.375145
v -0.210451 2.357751 0.180313
v 0.581559 0.276318 0.600798
v 0.405909 1.145797 0.425148
v -0.581559 0.276318 0.600798
v -0.405909 1.145797 0.425148
v 0.796276 -0.871632 0.832703
v -0.796275 -0.871632 0.832704
v 0.627303 -0.035206 0.663731
v -0.627303 -0.035206 0.663731
v 0.219177 2.518230 0.147893
v 0.008360 3.561790 -0.062924
v -0.219177 2.518230 0.147893
v -0.008360 3.561790 -0.062924
vn 0.000000 -1.000000 -0.000000
vn -0.000000 -0.198000 0.980200
vn 0.000000 0.198000 -0.980200
vn -0.980900 0.188100 0.050000
vn 0.980900 -0.188100 -0.050000
vn -0.000000 0.966400 0.256900
vn 0.980900 0.188100 0.050000
vn 0.000000 -0.966400 -0.256900
vn -0.980900 -0.188100 -0.050000
vn -0.000000 -0.198000 -0.980200
vn -0.000000 0.198000 0.980200
vn -0.980900 0.188100 -0.050000
vn 0.980900 -0.188100 0.050000
vn -0.000000 0.966400 -0.256900
vn 0.980900 0.188100 -0.050000
vn 0.000000 -0.966400 0.256900
vn -0.980900 -0.188100 0.050000
usemtl Material
s off
f 26//1 4//1 5//1 28//1
f 8//2 18//2 25//2 9//2
f 12//2 27//2 20//2 11//2
f 9//2 25//2 27//2 12//2
f 11//2 20//2 18//2 8//2
f 7//2 23//2 18//2 13//2
f 15//2 20//2 24//2 10//2
f 13//2 18//2 20//2 15//2
f 10//2 24//2 23//2 7//2
f 2//2 22//2 21//2 1//2
f 1//2 21//2 23//2 17//2
f 19//2 24//2 22//2 2//2
f 17//2 23//2 24//2 19//2
f 14//2 25//2 26//2 3//2
f 6//2 28//2 27//2 16//2
f 3//2 26//2 28//2 6//2
f 16//2 27//2 25//2 14//2
f 39//3 40//3 31//3 36//3
f 42//3 41//3 38//3 33//3
f 40//3 42//3 33//3 31//3
f 41//3 39//3 36//3 38//3
f 43//3 44//3 36//3 35//3
f 46//3 45//3 37//3 38//3
f 44//3 46//3 38//3 36//3
f 45//3 43//3 35//3 37//3
f 48//3 47//3 29//3 30//3
f 47//3 49//3 35//3 29//3
f 50//3 48//3 30//3 37//3
f 49//3 50//3 37//3 35//3
f 51//3 52//3 32//3 31//3
f 54//3 53//3 33//3 34//3
f 52//3 54//3 34//3 32//3
f 53//3 51//3 31//3 33//3
f 15//4 10//4 45//4 46//4
f 20//5 27//5 33//5 38//5
f 13//6 15//6 46//6 44//6
f 14//7 3//7 52//7 51//7
f 21//6 22//6 30//6 29//6
f 10//8 7//8 43//8 45//8
f 6//4 16//4 53//4 54//4
f 26//9 25//9 31//9 32//9
f 3//6 6//6 54//6 52//6
f 27//5 28//5 34//5 33//5
f 8//7 9//7 40//7 39//7
f 16//8 14//8 51//8 53//8
f 12//4 11//4 41//4 42//4
f 9//6 12//6 42//6 40//6
f 2//8 1//8 47//8 48//8
f 11//8 8//8 39//8 41//8
f 1//7 17//7 49//7 47//7
f 23//9 21//9 29//9 35//9
f 19//4 2//4 48//4 50//4
f 18//9 23//9 35//9 36//9
f 17//6 19//6 50//6 49//6
f 25//9 18//9 36//9 31//9
f 22//5 24//5 37//5 30//5
f 7//7 13//7 44//7 43//7
f 24//5 20//5 38//5 37//5
f 80//1 82//1 59//1 58//1
f 62//10 63//10 79//10 72//10
f 66//10 65//10 74//10 81//10
f 63//10 66//10 81//10 79//10
f 65//10 62//10 72//10 74//10
f 61//10 67//10 72//10 77//10
f 69//10 64//10 78//10 74//10
f 67//10 69//10 74//10 72//10
f 64//10 61//10 77//10 78//10
f 56//10 55//10 75//10 76//10
f 55//10 71//10 77//10 75//10
f 73//10 56//10 76//10 78//10
f 71//10 73//10 78//10 77//10
f 68//10 57//10 80//10 79//10
f 60//10 70//10 81//10 82//10
f 57//10 60//10 82//10 80//10
f 70//10 68//10 79//10 81//10
f 93//11 90//11 85//11 94//11
f 96//11 87//11 92//11 95//11
f 94//11 85//11 87//11 96//11
f 95//11 92//11 90//11 93//11
f 97//11 89//11 90//11 98//11
f 100//11 92//11 91//11 99//11
f 98//11 90//11 92//11 100//11
f 99//11 91//11 89//11 97//11
f 102//11 84//11 83//11 101//11
f 101//11 83//11 89//11 103//11
f 104//11 91//11 84//11 102//11
f 103//11 89//11 91//11 104//11
f 105//11 85//11 86//11 106//11
f 108//11 88//11 87//11 107//11
f 106//11 86//11 88//11 108//11
f 107//11 87//11 85//11 105//11
f 69//12 100//12 99//12 64//12
f 74//13 92//13 87//13 81//13
f 67//14 98//14 100//14 69//14
f 68//15 105//15 106//15 57//15
f 75//14 83//14 84//14 76//14
f 64//16 99//16 97//16 61//16
f 60//12 108//12 107//12 70//12
f 80//17 86//17 85//17 79//17
f 57//14 106//14 108//14 60//14
f 81//13 87//13 88//13 82//13
f 62//15 93//15 94//15 63//15
f 70//16 107//16 105//16 68//16
f 66//12 96//12 95//12 65//12
f 63//14 94//14 96//14 66//14
f 56//16 102//16 101//16 55//16
f 65//16 95//16 93//16 62//16
f 55//15 101//15 103//15 71//15
f 77//17 89//17 83//17 75//17
f 73//12 104//12 102//12 56//12
f 72//17 90//17 89//17 77//17
f 71//14 103//14 104//14 73//14
f 79//17 85//17 90//17 72//17
f 76//13 84//13 91//13 78//13
f 61//15 97//15 98//15 67//15
f 78//13 91//13 92//13 74//13
