# Blender v2.76 (sub 0) OBJ File: 'cactus.blend'
# www.blender.org
mtllib cactus.mtl
o Cylinder
v 0.032460 -1.101043 -0.405621
v 0.032460 4.929586 -0.024514
v 0.315208 -1.101043 -0.313751
v 0.091199 4.929586 -0.005429
v 0.489956 -1.101043 -0.073231
v 0.127502 4.929586 0.044538
v 0.489956 -1.101043 0.224068
v 0.127502 4.929586 0.106300
v 0.315208 -1.101043 0.464588
v 0.091199 4.929586 0.156266
v 0.032460 -1.101043 0.556459
v 0.032460 4.929586 0.175352
v -0.250288 -1.101043 0.464588
v -0.026279 4.929586 0.156266
v -0.425036 -1.101043 0.224068
v -0.062582 4.929586 0.106300
v -0.425036 -1.101043 -0.073231
v -0.062582 4.929586 0.044538
v -0.250288 -1.101043 -0.313751
v -0.026279 4.929586 -0.005429
v 0.315208 4.561417 -0.313751
v 0.032460 4.561417 -0.405621
v 0.489956 4.561417 -0.073231
v 0.489956 4.561417 0.224068
v 0.315208 4.561417 0.464588
v 0.032460 4.561417 0.556459
v -0.250288 4.561417 0.464588
v -0.425036 4.561417 0.224068
v -0.425036 4.561417 -0.073231
v -0.250288 4.561417 -0.313751
v 0.211777 4.814579 -0.171390
v 0.032460 4.814579 -0.229653
v 0.322601 4.814579 -0.018854
v 0.322601 4.814579 0.169691
v 0.211777 4.814579 0.322227
v 0.032460 4.814579 0.380491
v -0.146857 4.814579 0.322227
v -0.257681 4.814579 0.169691
v -0.257681 4.814579 -0.018854
v -0.146857 4.814579 -0.171390
v 0.032460 -0.534797 -0.405621
v 0.032460 0.031449 -0.405621
v 0.032460 0.597695 -0.405621
v 0.032460 1.163941 -0.405621
v 0.032460 1.730187 -0.405621
v 0.032460 2.296433 -0.405621
v 0.032460 2.919304 -0.474209
v 0.032460 3.372300 -0.474209
v 0.032460 3.995171 -0.405621
v 0.315208 3.995171 -0.313751
v 0.202109 3.343987 -0.449154
v 0.202109 2.947616 -0.449154
v 0.315208 2.296432 -0.313751
v 0.315208 1.730187 -0.313751
v 0.315208 1.163941 -0.313751
v 0.315208 0.597695 -0.313751
v 0.315208 0.031449 -0.313751
v 0.315208 -0.534797 -0.313751
v -0.250288 3.995171 -0.313751
v -0.137189 3.343987 -0.449154
v -0.137189 2.947616 -0.449154
v -0.250288 2.296432 -0.313751
v -0.250288 1.730187 -0.313751
v -0.250288 1.163941 -0.313751
v -0.250288 0.597695 -0.313751
v -0.250288 0.031449 -0.313751
v -0.250288 -0.534797 -0.313751
v 0.258659 3.230739 -0.440802
v 0.258659 3.060865 -0.440802
v -0.193738 3.060865 -0.440802
v -0.193738 3.230739 -0.440802
v 0.315208 3.004240 -0.313751
v 0.315208 2.862679 -0.313751
v -0.250288 3.004240 -0.313751
v -0.250288 2.862679 -0.313751
v 0.032460 2.862679 -0.405621
v -0.250288 3.428925 -0.313751
v 0.032460 3.428925 -0.405621
v 0.315208 3.428925 -0.313751
v 0.315208 3.287363 -0.313751
v -0.250288 3.287363 -0.313751
v 0.258659 3.182794 -0.699343
v 0.202109 3.088405 -0.762476
v -0.193738 3.182794 -0.699343
v -0.137189 3.088405 -0.762476
v 0.032460 3.076138 -0.798238
v -0.137189 3.433186 -0.566936
v 0.032460 3.470173 -0.574763
v 0.202109 3.433186 -0.566936
v 0.258659 3.330557 -0.615539
v -0.193738 3.330557 -0.615540
v 0.258659 3.332150 -0.901578
v 0.202109 3.288746 -1.006513
v -0.193738 3.332150 -0.901578
v -0.137189 3.288746 -1.006513
v 0.032460 3.298416 -1.043062
v -0.137189 3.466775 -0.652372
v 0.032460 3.501878 -0.638330
v 0.202109 3.466775 -0.652372
v 0.258659 3.408448 -0.749804
v -0.193738 3.408448 -0.749804
v 0.258659 3.507823 -0.984556
v 0.202109 3.517011 -1.097741
v -0.193738 3.507823 -0.984556
v -0.137189 3.517011 -1.097741
v 0.032460 3.542275 -1.125867
v -0.137189 3.514082 -0.701380
v 0.032460 3.538928 -0.672883
v 0.202109 3.514082 -0.701380
v 0.258659 3.506567 -0.814687
v -0.193738 3.506567 -0.814688
v 0.148246 4.448405 -0.952425
v 0.128455 4.457049 -0.991998
v -0.083325 4.448405 -0.952425
v -0.063533 4.457049 -0.991998
v 0.032461 4.482222 -1.007832
v -0.063533 4.455593 -0.794927
v 0.032461 4.480530 -0.778722
v 0.128455 4.455593 -0.794927
v 0.148246 4.447534 -0.834623
v -0.083325 4.447534 -0.834623
v 0.258659 4.333043 -0.978458
v 0.202110 4.342232 -1.091643
v -0.193738 4.333043 -0.978458
v -0.137188 4.342232 -1.091643
v 0.032461 4.367496 -1.119769
v -0.137188 4.339303 -0.695282
v 0.032461 4.364149 -0.666786
v 0.202110 4.339303 -0.695282
v 0.258659 4.331788 -0.808590
v -0.193738 4.331788 -0.808590
v 0.034159 1.496838 0.652895
v 0.034159 1.949834 0.652895
v -0.135490 1.921522 0.627840
v -0.135490 1.525151 0.627840
v 0.203807 1.921522 0.627840
v 0.203807 1.525151 0.627840
v -0.192040 1.808273 0.619488
v -0.192040 1.638400 0.619488
v 0.260357 1.638400 0.619488
v 0.260357 1.808273 0.619488
v -0.248589 1.440213 0.464588
v 0.316907 1.581775 0.464588
v 0.316907 1.440213 0.464588
v 0.034159 1.440213 0.556459
v 0.316907 2.006459 0.464588
v 0.034159 2.006459 0.556459
v -0.248589 2.006459 0.464588
v 0.316907 1.864898 0.464588
v -0.192040 1.760328 0.878028
v -0.135490 1.665939 0.941162
v 0.260357 1.760328 0.878028
v 0.203807 1.665939 0.941162
v 0.034159 1.653672 0.976924
v 0.203807 2.010720 0.745621
v 0.034159 2.047708 0.753449
v -0.135490 2.010720 0.745621
v -0.192040 1.908091 0.794225
v 0.260357 1.908091 0.794225
v -0.192040 1.909684 1.080264
v -0.135490 1.866281 1.185199
v 0.260357 1.909684 1.080264
v 0.203807 1.866281 1.185199
v 0.034158 1.875950 1.221748
v 0.203807 2.044310 0.831057
v 0.034159 2.079412 0.817015
v -0.135490 2.044310 0.831057
v -0.192040 1.985983 0.928489
v 0.260357 1.985983 0.928489
v -0.192040 2.085357 1.163242
v -0.135490 2.094546 1.276427
v 0.260357 2.085357 1.163242
v 0.203807 2.094546 1.276427
v 0.034159 2.119810 1.304553
v 0.203807 2.091617 0.880066
v 0.034159 2.116463 0.851569
v -0.135490 2.091617 0.880066
v -0.192040 2.084102 0.993373
v 0.260357 2.084102 0.993373
v -0.081628 4.394421 1.131111
v -0.061836 4.403066 1.170683
v 0.149944 4.394421 1.131111
v 0.130152 4.403066 1.170683
v 0.034158 4.428238 1.186518
v 0.130152 4.401609 0.973613
v 0.034158 4.426546 0.957408
v -0.061836 4.401609 0.973613
v -0.081628 4.393550 1.013309
v 0.149944 4.393550 1.013309
v -0.192041 4.279059 1.157144
v -0.135491 4.288248 1.270329
v 0.260356 4.279059 1.157144
v 0.203807 4.288248 1.270329
v 0.034158 4.313512 1.298455
v 0.203807 4.285319 0.873968
v 0.034158 4.310165 0.845471
v -0.135491 4.285319 0.873968
v -0.192041 4.277804 0.987275
v 0.260356 4.277804 0.987275
vn 0.309000 0.000000 -0.951100
vn 0.809000 0.000000 -0.587800
vn 1.000000 0.000000 0.000000
vn 0.809000 0.000000 0.587800
vn 0.309000 0.000000 0.951100
vn -0.309000 0.000000 0.951100
vn -0.809000 0.000000 0.587800
vn -1.000000 0.000000 0.000000
vn 0.000000 1.000000 -0.000000
vn -0.309000 0.000000 -0.951100
vn -0.809000 0.000000 -0.587800
vn 0.000000 -1.000000 0.000000
vn 0.257800 0.551500 -0.793400
vn 0.674900 0.551500 -0.490300
vn 0.834200 0.551500 0.000000
vn 0.674900 0.551500 0.490300
vn 0.257800 0.551500 0.793400
vn -0.257800 0.551500 0.793400
vn -0.674900 0.551500 0.490300
vn -0.834200 0.551500 0.000000
vn -0.674900 0.551500 -0.490300
vn -0.257800 0.551500 -0.793400
vn 0.156900 0.861500 -0.483000
vn 0.410800 0.861500 -0.298500
vn 0.507800 0.861500 0.000000
vn 0.410800 0.861500 0.298500
vn 0.156900 0.861500 0.483000
vn -0.156900 0.861500 0.483000
vn -0.410800 0.861500 0.298500
vn -0.507800 0.861500 0.000000
vn -0.410800 0.861500 -0.298500
vn -0.156900 0.861500 -0.483000
vn 0.181200 -0.891100 -0.416100
vn 0.789200 -0.155700 -0.594100
vn -0.789200 -0.155700 -0.594100
vn -0.210300 -0.744700 -0.633400
vn -0.210300 0.744700 -0.633400
vn 0.210300 -0.744700 -0.633400
vn 0.210300 0.744700 -0.633400
vn 0.789200 0.155700 -0.594100
vn 0.913600 0.000000 -0.406600
vn -0.913600 0.000000 -0.406600
vn -0.789200 0.155700 -0.594100
vn -0.882400 -0.370300 -0.290200
vn -0.888100 -0.417700 -0.191900
vn 0.082800 0.756800 0.648400
vn -0.181200 -0.891100 -0.416100
vn -0.873700 0.408500 0.264000
vn 0.873700 0.408500 0.264000
vn -0.082800 0.756800 0.648400
vn 0.888100 -0.417700 -0.191900
vn 0.198000 0.897800 0.393400
vn -0.143700 -0.748700 -0.647200
vn -0.880100 0.423400 0.214900
vn 0.880100 0.423400 0.214900
vn -0.198000 0.897800 0.393400
vn 0.882400 -0.370300 -0.290200
vn 0.143700 -0.748700 -0.647200
vn 0.164600 -0.007300 0.986300
vn 0.208700 0.688300 0.694800
vn -0.141800 -0.342400 -0.928800
vn -0.877100 0.296200 0.378200
vn 0.877100 0.296200 0.378200
vn -0.208700 0.688300 0.694800
vn 0.884000 -0.185100 -0.429300
vn 0.141800 -0.342400 -0.928800
vn -0.884000 -0.185200 -0.429300
vn 0.000000 1.000000 0.007400
vn -0.164600 0.007300 -0.986300
vn -0.894700 -0.003300 0.446700
vn 0.894700 -0.003300 0.446700
vn -0.164600 -0.007300 0.986300
vn 0.894700 0.003300 -0.446700
vn 0.164600 0.007300 -0.986300
vn -0.894700 0.003300 -0.446700
vn 0.680000 0.685600 -0.259800
vn -0.680000 0.685600 -0.259800
vn -0.244000 0.698400 -0.672800
vn -0.244000 0.693600 0.677800
vn 0.244000 0.698400 -0.672800
vn 0.244000 0.693600 0.677800
vn 0.678400 0.683800 0.268900
vn 0.723000 0.690800 0.005100
vn -0.723000 0.690800 0.005100
vn -0.678400 0.683800 0.268900
vn -0.181200 -0.891100 0.416100
vn 0.836600 -0.168600 0.521100
vn 0.189200 -0.825200 0.532200
vn 0.189200 0.825200 0.532200
vn -0.189200 -0.825200 0.532200
vn -0.189200 0.825200 0.532200
vn 0.939400 0.000000 0.342900
vn 0.836600 0.168600 0.521100
vn 0.882400 -0.370300 0.290200
vn 0.888100 -0.417700 0.191900
vn -0.082800 0.756800 -0.648400
vn 0.181200 -0.891100 0.416100
vn 0.873700 0.408500 -0.264000
vn -0.873700 0.408500 -0.264000
vn 0.082800 0.756800 -0.648400
vn -0.888100 -0.417700 0.191900
vn -0.198000 0.897800 -0.393400
vn 0.143700 -0.748700 0.647200
vn 0.880100 0.423400 -0.214900
vn -0.880100 0.423400 -0.214900
vn 0.198000 0.897800 -0.393400
vn -0.882400 -0.370300 0.290200
vn -0.143700 -0.748700 0.647200
vn -0.165300 -0.002700 -0.986200
vn -0.208700 0.688300 -0.694800
vn 0.141800 -0.342400 0.928800
vn 0.877100 0.296200 -0.378200
vn -0.877100 0.296200 -0.378200
vn 0.208700 0.688300 -0.694800
vn -0.884000 -0.185100 0.429300
vn -0.141800 -0.342400 0.928800
vn 0.884000 -0.185200 0.429300
vn 0.000000 1.000000 -0.007400
vn 0.164000 0.002700 0.986500
vn 0.894700 -0.001200 -0.446600
vn -0.894700 -0.001200 -0.446600
vn 0.165300 -0.002700 -0.986200
vn -0.894600 0.001200 0.446900
vn -0.164000 0.002700 0.986500
vn 0.894600 0.001200 0.446900
vn -0.680000 0.685600 0.259800
vn 0.680000 0.685600 0.259800
vn 0.244000 0.698400 0.672800
vn 0.244000 0.693600 -0.677800
vn -0.244000 0.698400 0.672800
vn -0.244000 0.693600 -0.677800
vn -0.678400 0.683800 -0.268900
vn -0.723000 0.690800 -0.005100
vn 0.723000 0.690800 -0.005100
vn 0.678400 0.683800 -0.268900
usemtl None
s off
f 49//1 22//1 21//1 50//1
f 3//2 58//2 57//2 56//2 55//2 54//2 53//2 73//2 72//2 80//2 79//2 50//2 21//2 23//2 5//2
f 5//3 23//3 24//3 7//3
f 7//4 24//4 25//4 9//4
f 9//5 25//5 26//5 11//5
f 11//6 26//6 27//6 13//6
f 13//7 27//7 28//7 15//7
f 15//8 28//8 29//8 17//8
f 4//9 2//9 20//9 18//9 16//9 14//9 12//9 10//9 8//9 6//9
f 59//10 30//10 22//10 49//10
f 17//11 29//11 30//11 59//11 77//11 81//11 74//11 75//11 62//11 63//11 64//11 65//11 66//11 67//11 19//11
f 1//12 3//12 5//12 7//12 9//12 11//12 13//12 15//12 17//12 19//12
f 32//13 31//13 21//13 22//13
f 31//14 33//14 23//14 21//14
f 33//15 34//15 24//15 23//15
f 34//16 35//16 25//16 24//16
f 35//17 36//17 26//17 25//17
f 36//18 37//18 27//18 26//18
f 37//19 38//19 28//19 27//19
f 38//20 39//20 29//20 28//20
f 39//21 40//21 30//21 29//21
f 40//22 32//22 22//22 30//22
f 2//23 4//23 31//23 32//23
f 4//24 6//24 33//24 31//24
f 6//25 8//25 34//25 33//25
f 8//26 10//26 35//26 34//26
f 10//27 12//27 36//27 35//27
f 12//28 14//28 37//28 36//28
f 14//29 16//29 38//29 37//29
f 16//30 18//30 39//30 38//30
f 18//31 20//31 40//31 39//31
f 20//32 2//32 32//32 40//32
f 19//10 67//10 41//10 1//10
f 67//10 66//10 42//10 41//10
f 66//10 65//10 43//10 42//10
f 65//10 64//10 44//10 43//10
f 64//10 63//10 45//10 44//10
f 63//10 62//10 46//10 45//10
f 62//10 75//10 76//10 46//10
f 77//10 59//10 49//10 78//10
f 1//1 41//1 58//1 3//1
f 41//1 42//1 57//1 58//1
f 42//1 43//1 56//1 57//1
f 43//1 44//1 55//1 56//1
f 44//1 45//1 54//1 55//1
f 45//1 46//1 53//1 54//1
f 46//1 76//1 73//1 53//1
f 52//33 47//33 86//33 83//33
f 78//1 49//1 50//1 79//1
f 52//34 69//34 72//34 73//34
f 70//35 61//35 75//35 74//35
f 61//36 47//36 76//36 75//36
f 48//37 60//37 77//37 78//37
f 47//38 52//38 73//38 76//38
f 51//39 48//39 78//39 79//39
f 68//40 51//40 79//40 80//40
f 69//41 68//41 80//41 72//41
f 71//42 70//42 74//42 81//42
f 60//43 71//43 81//43 77//43
f 85//44 84//44 94//44 95//44
f 61//45 70//45 84//45 85//45
f 70//8 71//8 91//8 84//8
f 48//46 51//46 89//46 88//46
f 47//47 61//47 85//47 86//47
f 71//48 60//48 87//48 91//48
f 51//49 68//49 90//49 89//49
f 60//50 48//50 88//50 87//50
f 69//51 52//51 83//51 82//51
f 68//3 69//3 82//3 90//3
f 94//8 101//8 111//8 104//8
f 84//8 91//8 101//8 94//8
f 88//52 89//52 99//52 98//52
f 86//53 85//53 95//53 96//53
f 91//54 87//54 97//54 101//54
f 89//55 90//55 100//55 99//55
f 87//56 88//56 98//56 97//56
f 82//57 83//57 93//57 92//57
f 90//3 82//3 92//3 100//3
f 83//58 86//58 96//58 93//58
f 108//59 109//59 129//59 128//59
f 98//60 99//60 109//60 108//60
f 96//61 95//61 105//61 106//61
f 101//62 97//62 107//62 111//62
f 99//63 100//63 110//63 109//63
f 97//64 98//64 108//64 107//64
f 92//65 93//65 103//65 102//65
f 100//3 92//3 102//3 110//3
f 93//66 96//66 106//66 103//66
f 95//67 94//67 104//67 105//67
f 120//68 112//68 113//68 116//68 115//68 114//68 121//68 117//68 118//68 119//68
f 106//69 105//69 125//69 126//69
f 111//70 107//70 127//70 131//70
f 109//71 110//71 130//71 129//71
f 107//72 108//72 128//72 127//72
f 102//73 103//73 123//73 122//73
f 110//3 102//3 122//3 130//3
f 103//74 106//74 126//74 123//74
f 105//75 104//75 124//75 125//75
f 104//8 111//8 131//8 124//8
f 113//76 112//76 122//76 123//76
f 114//77 115//77 125//77 124//77
f 115//78 116//78 126//78 125//78
f 118//79 117//79 127//79 128//79
f 116//80 113//80 123//80 126//80
f 119//81 118//81 128//81 129//81
f 120//82 119//82 129//82 130//82
f 112//83 120//83 130//83 122//83
f 121//84 114//84 124//84 131//84
f 117//85 121//85 131//85 127//85
f 135//86 132//86 154//86 151//86
f 140//87 137//87 144//87 143//87
f 137//88 132//88 145//88 144//88
f 133//89 136//89 146//89 147//89
f 132//90 135//90 142//90 145//90
f 134//91 133//91 147//91 148//91
f 141//92 140//92 143//92 149//92
f 136//93 141//93 149//93 146//93
f 153//94 152//94 162//94 163//94
f 137//95 140//95 152//95 153//95
f 140//3 141//3 159//3 152//3
f 133//96 134//96 157//96 156//96
f 132//97 137//97 153//97 154//97
f 141//98 136//98 155//98 159//98
f 134//99 138//99 158//99 157//99
f 136//100 133//100 156//100 155//100
f 139//101 135//101 151//101 150//101
f 138//8 139//8 150//8 158//8
f 162//3 169//3 179//3 172//3
f 152//3 159//3 169//3 162//3
f 156//102 157//102 167//102 166//102
f 154//103 153//103 163//103 164//103
f 159//104 155//104 165//104 169//104
f 157//105 158//105 168//105 167//105
f 155//106 156//106 166//106 165//106
f 150//107 151//107 161//107 160//107
f 158//8 150//8 160//8 168//8
f 151//108 154//108 164//108 161//108
f 176//109 177//109 197//109 196//109
f 166//110 167//110 177//110 176//110
f 164//111 163//111 173//111 174//111
f 169//112 165//112 175//112 179//112
f 167//113 168//113 178//113 177//113
f 165//114 166//114 176//114 175//114
f 160//115 161//115 171//115 170//115
f 168//8 160//8 170//8 178//8
f 161//116 164//116 174//116 171//116
f 163//117 162//117 172//117 173//117
f 188//118 180//118 181//118 184//118 183//118 182//118 189//118 185//118 186//118 187//118
f 174//119 173//119 193//119 194//119
f 179//120 175//120 195//120 199//120
f 177//121 178//121 198//121 197//121
f 175//122 176//122 196//122 195//122
f 170//123 171//123 191//123 190//123
f 178//8 170//8 190//8 198//8
f 171//124 174//124 194//124 191//124
f 173//125 172//125 192//125 193//125
f 172//3 179//3 199//3 192//3
f 181//126 180//126 190//126 191//126
f 182//127 183//127 193//127 192//127
f 183//128 184//128 194//128 193//128
f 186//129 185//129 195//129 196//129
f 184//130 181//130 191//130 194//130
f 187//131 186//131 196//131 197//131
f 188//132 187//132 197//132 198//132
f 180//133 188//133 198//133 190//133
f 189//134 182//134 192//134 199//134
f 185//135 189//135 199//135 195//135
